<svg xmlns="http://www.w3.org/2000/svg" viewBox="0 0 900 1200" width="900" height="1200" role="img" aria-label="Closing, Window">
  <defs>
    <linearGradient id="g14" x1="0%" y1="0%" x2="100%" y2="100%">
      <stop offset="0%" stop-color="#C4BEB1"/>
      <stop offset="45%" stop-color="#928A7C"/>
      <stop offset="100%" stop-color="#4E4A41"/>
    </linearGradient>
    <filter id="n14">
      <feTurbulence type="fractalNoise" baseFrequency="0.85" numOctaves="2" stitchTiles="stitch" result="noise"/>
      <feColorMatrix in="noise" type="saturate" values="0"/>
      <feComponentTransfer><feFuncA type="linear" slope="0.16"/></feComponentTransfer>
    </filter>
    <clipPath id="clip14"><rect width="900" height="1200"/></clipPath>
  </defs>
  <rect width="900" height="1200" fill="url(#g14)"/><rect x="522.0" y="120.0" width="324.0" height="384.0" fill="none" stroke="#1A1917" stroke-opacity="0.22" stroke-width="2"/><line x1="684.0" y1="120.0" x2="684.0" y2="504.0" stroke="#1A1917" stroke-opacity="0.22" stroke-width="1.5"/><line x1="522.0" y1="312.0" x2="846.0" y2="312.0" stroke="#1A1917" stroke-opacity="0.22" stroke-width="1.5"/><g fill="#1A1917" fill-opacity="0.4" color="#1A1917" transform="scale(1,1) translate(0,0)"><circle cx="360.0" cy="725.2" r="19.0" /><path d="M 331.5 757.5 C 322.0 822.1, 332.45 900.0, 338.15 919.0 L 381.85 919.0 C 387.55 900.0, 398.0 822.1, 388.5 757.5 Z" /><path d="M 331.5 765.1 C 325.8 870.55, 327.7 947.5, 335.3 957.0" fill="none" stroke="currentColor" stroke-width="5.699999999999999" stroke-linecap="round" opacity="0.7"/><path d="M 338.15 919.0 L 347.9825 1128.0 L 354.3 1128.0 L 349.075 1033.95 L 360.0 919.0 Z" /><path d="M 381.85 919.0 L 372.0175 1128.0 L 365.7 1128.0 L 370.925 1033.95 L 360.0 919.0 Z" /></g>
  <rect width="900" height="1200" filter="url(#n14)" fill="#1A1917"/>
  <rect x="0.75" y="0.75" width="898.5" height="1198.5" fill="none" stroke="#D8D3C9" stroke-opacity="0.55" stroke-width="1.5"/>
    <text x="40.5" y="1159.5" font-family="Inter, 'Noto Sans JP', sans-serif" font-size="18.0" letter-spacing="5.3999999999999995" fill="#8C8275" fill-opacity="0.85">LOOK 14 — Closing, Window</text>
</svg>